<?xml version="1.0" encoding="utf-8"?>
<!-- Generator: Adobe Illustrator 15.0.1, SVG Export Plug-In . SVG Version: 6.00 Build 0)  -->
<!DOCTYPE svg PUBLIC "-//W3C//DTD SVG 1.1//EN" "http://www.w3.org/Graphics/SVG/1.1/DTD/svg11.dtd">
<svg version="1.1" id="Layer_1" xmlns="http://www.w3.org/2000/svg" xmlns:xlink="http://www.w3.org/1999/xlink" x="0px" y="0px"
	 width="857.143px" height="1000px" viewBox="0 0 857.143 1000" enable-background="new 0 0 857.143 1000" xml:space="preserve">
<ellipse opacity="0.3" cx="428.544" cy="502.082" rx="418.544" ry="420.594"/>
<g>
	<path fill="#FFFFFF" d="M428.544,81.488c37.821,0,74.665,4.72,109.507,14.03c34.823,9.304,68.657,23.462,100.563,42.081
		c31.934,18.636,60.937,40.896,86.202,66.162c25.265,25.266,47.524,54.269,66.162,86.203c18.618,31.906,32.775,65.74,42.08,100.563
		c9.311,34.842,14.029,71.686,14.029,109.507s-4.72,74.665-14.029,109.507c-9.305,34.822-23.463,68.656-42.08,100.563
		c-18.638,31.935-40.896,60.938-66.162,86.202c-25.267,25.266-54.27,47.525-86.202,66.161
		c-31.905,18.619-65.739,32.777-100.563,42.081c-34.842,9.311-71.686,14.03-109.507,14.03c-37.821,0-74.665-4.721-109.507-14.03
		c-34.823-9.304-68.656-23.462-100.562-42.081c-31.935-18.636-60.938-40.896-86.203-66.161
		c-25.266-25.266-47.525-54.269-66.162-86.202c-18.619-31.905-32.777-65.739-42.081-100.563C14.72,574.697,10,537.854,10,500.032
		c0-37.822,4.72-74.665,14.03-109.507c9.304-34.823,23.462-68.657,42.081-100.563c18.636-31.935,40.896-60.938,66.162-86.203
		c25.265-25.266,54.268-47.525,86.203-66.162c31.906-18.619,65.739-32.777,100.562-42.081
		C353.879,86.208,390.723,81.488,428.544,81.488 M428.544,71.488c-77.748,0-149.451,19.158-215.109,57.474
		C147.777,167.278,95.79,219.265,57.474,284.923C19.158,350.581,0,422.284,0,500.032S19.158,649.483,57.474,715.14
		c38.316,65.658,90.303,117.646,155.961,155.961c65.658,38.316,137.361,57.476,215.109,57.476s149.451-19.158,215.109-57.476
		c65.656-38.314,117.645-90.303,155.961-155.961c38.314-65.656,57.474-137.359,57.474-215.107s-19.158-149.451-57.474-215.109
		c-38.316-65.658-90.305-117.645-155.961-155.961C577.995,90.646,506.292,71.488,428.544,71.488L428.544,71.488z"/>
</g>
<path fill="#FFFFFF" d="M618.816,530.722c11.902-6.694,17.854-16.926,17.854-30.688c0-13.766-5.952-23.994-17.854-30.69
	l-303.552-178.56c-11.532-7.068-23.436-7.254-35.712-0.558c-11.904,7.068-17.856,17.484-17.856,31.248v357.12
	c0,13.765,5.952,24.181,17.856,31.248c5.952,2.978,11.904,4.464,17.856,4.464c6.324,0,12.276-1.674,17.856-5.021L618.816,530.722z"
	/>
</svg>
